# xmcd CD database file
#
# Track frame offsets:
#	150
#	15192
#	31445
#	53145
#	69692
#	92770
#	113410
#	125780
#	142690
#	156087
#	176727
#	189337
#	207515
#	226837
#	240580
#
# Disc length: 3377 seconds
#
# Revision: 1
# Processed by: cddbd v1.4PL0 Copyright (c) Steve Scherf et al.
# Submitted via: CDex 1.50beta10
#
DISCID=bf0d2f0f
DTITLE=Matt Walsh and Gregor Hilden Duo - Classic Blues
DYEAR=1900
DGENRE=Blues
TTITLE0=Walking Blues
TTITLE1=C.C. Rider 
TTITLE2=Little Red Rooster
TTITLE3=Help Me
TTITLE4=Poor Boy Blues
TTITLE5=How Many More Years
TTITLE6=Ain't No Sunshine
TTITLE7=Built For Comfort
TTITLE8=The Thrill Is Gone
TTITLE9=Goin' Down Slow 
TTITLE10=My Babe
TTITLE11=Who's Been Talkin'
TTITLE12=Come On Into My Kitchen
TTITLE13=Phone Booth
TTITLE14=I Ain't Superstitious
EXTD=
EXTT0=
EXTT1=
EXTT2=
EXTT3=
EXTT4=
EXTT5=
EXTT6=
EXTT7=
EXTT8=
EXTT9=
EXTT10=
EXTT11=
EXTT12=
EXTT13=
EXTT14=
PLAYORDER=
